Land_normalized_pl07_filtered_grf
version=1
nRows=30
nColumns=37
inDegrees=yes
endheader
time		1_ground_force_vx		1_ground_force_vy		1_ground_force_vz		1_ground_force_px		1_ground_force_py		1_ground_force_pz		1_ground_torque_x		1_ground_torque_y		1_ground_torque_z		2_ground_force_vx		2_ground_force_vy		2_ground_force_vz		2_ground_force_px		2_ground_force_py		2_ground_force_pz		2_ground_torque_x		2_ground_torque_y		2_ground_torque_z		3_ground_force_vx		3_ground_force_vy		3_ground_force_vz		3_ground_force_px		3_ground_force_py		3_ground_force_pz		3_ground_torque_x		3_ground_torque_y		3_ground_torque_z		4_ground_force_vx		4_ground_force_vy		4_ground_force_vz		4_ground_force_px		4_ground_force_py		4_ground_force_pz		4_ground_torque_x		4_ground_torque_y		4_ground_torque_z		
0.679500		-9.272213		658.298903		237.558489		0.104275		0.000000		0.230979		-0.220604		15.662243		5.651990		73.382498		959.905356		216.981512		-0.140270		0.000000		0.255995		-0.338405		-4.426622		-1.000614		21.959853		1.086428		0.286083		0.375643		1.311021		1.913690		-0.101261		-0.005010		-0.001319		-18.737403		-0.555438		1.894668		-0.265146		1.310014		1.924600		0.009894		0.000293		-0.001000		
0.682455		-13.378943		651.462737		229.173609		0.105043		0.000000		0.230781		-0.309399		15.065906		5.299942		79.120950		961.023158		205.350141		-0.141182		0.000000		0.256477		-0.340285		-4.133254		-0.883199		21.912675		1.088898		0.388780		0.375659		1.311026		1.913718		-0.101811		-0.005060		-0.001806		-18.734331		-0.593376		1.884228		-0.265121		1.310015		1.924611		0.011184		0.000354		-0.001125		
0.685409		-18.003581		648.601724		220.637337		0.106396		0.000000		0.231988		-0.407253		14.672155		4.991099		85.806470		962.662194		196.264193		-0.142389		0.000000		0.256949		-0.321749		-3.609928		-0.736003		21.915711		1.107514		0.483327		0.375673		1.311029		1.913740		-0.102939		-0.005202		-0.002270		-18.709667		-0.588518		1.868297		-0.265092		1.310020		1.924619		0.012501		0.000393		-0.001249		
0.688364		-22.831238		648.641567		213.089334		0.107937		0.000000		0.233635		-0.506319		14.385026		4.725735		92.818975		964.329844		190.427002		-0.143735		0.000000		0.257283		-0.274646		-2.853722		-0.563550		21.977080		1.134319		0.562489		0.375685		1.311031		1.913756		-0.104159		-0.005376		-0.002666		-18.666889		-0.540830		1.840371		-0.265060		1.310025		1.924621		0.013462		0.000390		-0.001328		
0.691318		-27.613192		650.303856		207.000986		0.109295		0.000000		0.234721		-0.596919		14.058211		4.474956		98.910135		965.313638		187.159961		-0.144976		0.000000		0.257433		-0.212723		-2.076315		-0.402579		22.085068		1.147188		0.623830		0.375697		1.311033		1.913764		-0.104918		-0.005450		-0.002964		-18.617600		-0.459754		1.806798		-0.265029		1.310028		1.924618		0.013822		0.000341		-0.001341		
0.694273		-32.194330		652.566520		202.105301		0.110284		0.000000		0.234775		-0.671142		13.604322		4.213404		102.862855		964.923327		185.216360		-0.145896		0.000000		0.257394		-0.163766		-1.536309		-0.294898		22.209382		1.122055		0.663998		0.375708		1.311033		1.913760		-0.104838		-0.005297		-0.003135		-18.578688		-0.361428		1.786176		-0.265000		1.310027		1.924610		0.013502		0.000263		-0.001298		
0.697227		-36.411982		654.928345		197.842068		0.110923		0.000000		0.233990		-0.727048		13.077554		3.950523		104.173336		962.774592		183.668129		-0.146401		0.000000		0.257175		-0.146248		-1.351639		-0.257852		22.312438		1.048908		0.674147		0.375715		1.311032		1.913747		-0.103928		-0.004885		-0.003140		-18.561014		-0.267671		1.796753		-0.264977		1.310024		1.924597		0.012540		0.000181		-0.001214		
0.700182		-40.030717		657.376869		193.897007		0.111339		0.000000		0.232949		-0.767721		12.607600		3.718703		103.271446		958.944666		182.337997		-0.146549		0.000000		0.256794		-0.154320		-1.432977		-0.272472		22.365770		0.941554		0.641336		0.375720		1.311028		1.913722		-0.102619		-0.004320		-0.002943		-18.559438		-0.203377		1.840517		-0.264961		1.310019		1.924583		0.011024		0.000120		-0.001093		
0.703136		-42.793886		660.174402		190.358632		0.111677		0.000000		0.232207		-0.796362		12.285426		3.542464		101.148230		953.905349		181.618950		-0.146490		0.000000		0.256271		-0.166702		-1.572142		-0.299329		22.362120		0.834593		0.556562		0.375722		1.311024		1.913690		-0.101579		-0.003791		-0.002528		-18.555831		-0.190399		1.896245		-0.264954		1.310014		1.924568		0.009131		0.000093		-0.000933		
0.706091		-44.534848		663.614786		187.504338		0.112027		0.000000		0.232032		-0.813997		12.129402		3.427165		98.703660		948.294453		181.950576		-0.146363		0.000000		0.255638		-0.166588		-1.600489		-0.307088		22.317790		0.767927		0.425384		0.375721		1.311021		1.913656		-0.101351		-0.003487		-0.001932		-18.532543		-0.239349		1.928992		-0.264952		1.310011		1.924552		0.007162		0.000092		-0.000745		
0.709045		-45.243819		667.852894		185.530772		0.112395		0.000000		0.232371		-0.821911		12.132401		3.370404		96.294369		942.681963		183.374550		-0.146224		0.000000		0.254941		-0.152815		-1.495995		-0.291007		22.264641		0.766336		0.271919		0.375719		1.311021		1.913623		-0.102016		-0.003511		-0.001246		-18.485070		-0.342677		1.909643		-0.264954		1.310011		1.924536		0.005508		0.000102		-0.000569		
0.712000		-45.041317		672.812173		184.474087		0.112710		0.000000		0.232953		-0.821787		12.275580		3.365763		93.766474		937.428808		185.463575		-0.146042		0.000000		0.254232		-0.137022		-1.369875		-0.271020		22.236192		0.825679		0.130971		0.375717		1.311024		1.913594		-0.103143		-0.003830		-0.000608		-18.425088		-0.473720		1.831601		-0.264958		1.310012		1.924519		0.004544		0.000117		-0.000452		
0.714955		-44.084420		678.196648		184.289930		0.112858		0.000000		0.233425		-0.812661		12.502026		3.397241		90.871424		932.653753		187.631875		-0.145760		0.000000		0.253554		-0.132331		-1.358181		-0.273240		22.253277		0.914222		0.034212		0.375717		1.311027		1.913571		-0.104070		-0.004275		-0.000160		-18.374384		-0.594456		1.716958		-0.264962		1.310014		1.924501		0.004470		0.000144		-0.000418		
0.717909		-42.495215		683.591550		184.908513		0.112746		0.000000		0.233494		-0.791310		12.729295		3.443218		87.681049		928.289689		189.557345		-0.145362		0.000000		0.252913		-0.142192		-1.505433		-0.307413		22.313683		0.989428		-0.001988		0.375720		1.311028		1.913556		-0.104303		-0.004625		0.000010		-18.354508		-0.669561		1.607977		-0.264965		1.310015		1.924483		0.005166		0.000189		-0.000452		
0.720864		-40.349122		688.634405		186.216357		0.112343		0.000000		0.233048		-0.756701		12.914564		3.492279		84.647949		924.200519		191.379958		-0.144897		0.000000		0.252277		-0.158180		-1.727075		-0.357640		22.393380		1.021597		0.019047		0.375723		1.311024		1.913549		-0.103798		-0.004735		-0.000088		-18.377242		-0.679941		1.547379		-0.264969		1.310015		1.924465		0.006267		0.000232		-0.000528		
0.723818		-37.726032		693.136596		187.993755		0.111708		0.000000		0.232202		-0.712220		13.085608		3.549102		82.308332		920.284499		193.524363		-0.144451		0.000000		0.251600		-0.167392		-1.871610		-0.393578		22.457927		1.008976		0.075654		0.375726		1.311017		1.913549		-0.102966		-0.004626		-0.000347		-18.440555		-0.628425		1.558036		-0.264974		1.310014		1.924449		0.007419		0.000253		-0.000627		
0.726773		-34.744850		697.094465		189.949523		0.110983		0.000000		0.231247		-0.662691		13.295854		3.622956		80.896892		916.526719		196.276612		-0.144091		0.000000		0.250863		-0.162065		-1.836114		-0.393205		22.476419		0.976191		0.136874		0.375726		1.311007		1.913553		-0.102406		-0.004448		-0.000623		-18.530938		-0.534175		1.632725		-0.264980		1.310013		1.924435		0.008499		0.000245		-0.000749		
0.729727		-31.548688		700.571651		191.852696		0.110337		0.000000		0.230494		-0.611015		13.568409		3.715734		80.191193		912.985125		199.444283		-0.143819		0.000000		0.250093		-0.144277		-1.642608		-0.358825		22.430634		0.958965		0.175380		0.375721		1.310996		1.913559		-0.102528		-0.004383		-0.000802		-18.628719		-0.421357		1.740409		-0.264989		1.310012		1.924423		0.009592		0.000217		-0.000896		
0.732682		-28.279812		703.556583		193.649934		0.109881		0.000000		0.230131		-0.558017		13.882775		3.821157		79.686373		909.751551		202.374669		-0.143583		0.000000		0.249363		-0.124063		-1.416376		-0.315069		22.318896		0.985781		0.178981		0.375710		1.310988		1.913566		-0.103328		-0.004564		-0.000828		-18.712524		-0.311080		1.845354		-0.265004		1.310012		1.924412		0.010756		0.000178		-0.001061		
0.735636		-25.085333		705.877821		195.426133		0.109615		0.000000		0.230121		-0.504426		14.194261		3.929762		78.940862		906.934957		204.331669		-0.143313		0.000000		0.248736		-0.112297		-1.290162		-0.290672		22.158869		1.065187		0.155299		0.375691		1.310982		1.913568		-0.104429		-0.005020		-0.000732		-18.762870		-0.218960		1.925481		-0.265023		1.310012		1.924402		0.011835		0.000138		-0.001214		
0.738591		-22.138675		707.251025		197.262379		0.109439		0.000000		0.230228		-0.452378		14.451969		4.030862		77.835720		904.664203		204.961764		-0.142973		0.000000		0.248240		-0.112802		-1.311071		-0.297038		21.987791		1.182720		0.127349		0.375668		1.310980		1.913563		-0.105332		-0.005666		-0.000610		-18.767186		-0.155181		1.977864		-0.265047		1.310012		1.924395		0.012544		0.000104		-0.001322		
0.741545		-19.623523		707.427364		199.169776		0.109225		0.000000		0.230142		-0.405398		14.614640		4.114621		76.580172		903.097500		204.499972		-0.142572		0.000000		0.247836		-0.120185		-1.417324		-0.320943		21.855171		1.307371		0.122256		0.375642		1.310980		1.913550		-0.105725		-0.006324		-0.000591		-18.726145		-0.123346		2.011687		-0.265073		1.310014		1.924390		0.012723		0.000084		-0.001367		
0.744500		-17.681019		706.359313		201.172775		0.108905		0.000000		0.229663		-0.367009		14.662058		4.175788		75.495235		902.430346		203.572540		-0.142142		0.000000		0.247460		-0.125029		-1.494537		-0.337141		21.807010		1.403822		0.155489		0.375614		1.310982		1.913528		-0.105642		-0.006801		-0.000753		-18.657968		-0.119419		2.036781		-0.265100		1.310015		1.924387		0.012521		0.000080		-0.001367		
0.747455		-16.371544		704.262527		203.390069		0.108506		0.000000		0.228805		-0.339098		14.587127		4.212741		74.755873		902.893656		202.764282		-0.141703		0.000000		0.247051		-0.121381		-1.466021		-0.329227		21.867165		1.445044		0.219714		0.375587		1.310984		1.913500		-0.105407		-0.006966		-0.001059		-18.596220		-0.133927		2.056049		-0.265127		1.310015		1.924387		0.012343		0.000089		-0.001365		
0.750409		-15.669917		701.550133		205.947816		0.108125		0.000000		0.227770		-0.321418		14.390000		4.224340		74.261777		904.710626		202.270192		-0.141244		0.000000		0.246602		-0.111143		-1.354017		-0.302724		22.023447		1.421487		0.284826		0.375566		1.310987		1.913471		-0.105440		-0.006806		-0.001363		-18.578327		-0.156338		2.064317		-0.265151		1.310014		1.924385		0.012604		0.000106		-0.001400		
0.753364		-15.488265		698.651720		208.814671		0.107853		0.000000		0.226790		-0.312415		14.092598		4.212021		73.714461		908.043553		201.889135		-0.140732		0.000000		0.246147		-0.102472		-1.262289		-0.280650		22.230035		1.341902		0.310256		0.375549		1.310990		1.913445		-0.106046		-0.006401		-0.001480		-18.628696		-0.179889		2.053084		-0.265175		1.310012		1.924381		0.013484		0.000130		-0.001486		
0.756318		-15.688670		695.866043		211.753149		0.107713		0.000000		0.226003		-0.310240		13.760633		4.187373		72.811452		912.949709		201.325234		-0.140140		0.000000		0.245730		-0.103566		-1.298578		-0.286363		22.423979		1.226596		0.264029		0.375535		1.310992		1.913425		-0.107294		-0.005869		-0.001263		-18.745065		-0.204618		2.017056		-0.265198		1.310009		1.924374		0.014773		0.000161		-0.001589		
0.759273		-16.116097		693.308005		214.439814		0.107670		0.000000		0.225429		-0.313131		13.470805		4.166506		71.416067		919.410570		200.533406		-0.139465		0.000000		0.245366		-0.116390		-1.498463		-0.326826		22.549604		1.096690		0.141423		0.375522		1.310993		1.913415		-0.108975		-0.005300		-0.000683		-18.896140		-0.235990		1.959514		-0.265222		1.310007		1.924365		0.015948		0.000199		-0.001654		
0.762227		-16.657888		690.953284		216.594166		0.107678		0.000000		0.225001		-0.319296		13.244113		4.151648		69.592870		927.427262		199.839820		-0.138733		0.000000		0.245037		-0.135524		-1.806135		-0.389176		22.578523		0.967239		-0.026977		0.375509		1.310992		1.913415		-0.110611		-0.004738		0.000132		-19.033473		-0.279042		1.893321		-0.265248		1.310007		1.924355		0.016421		0.000241		-0.001634		
0.765182		-17.286183		688.722820		218.003559		0.107732		0.000000		0.224626		-0.327004		13.028647		4.123995		67.494122		937.122941		199.749612		-0.137985		0.000000		0.244711		-0.152818		-2.121879		-0.452279		22.515819		0.848354		-0.186673		0.375494		1.310990		1.913426		-0.111526		-0.004202		0.000924		-19.111558		-0.332908		1.835595		-0.265276		1.310009		1.924349		0.015838		0.000276		-0.001522		
